<?xml version="1.0" encoding="UTF-8" standalone="no"?>
<!-- Uploaded to: SVG Repo, www.svgrepo.com, Generator: SVG Repo Mixer Tools -->

<svg
   version="1.1"
   id="Layer_1"
   viewBox="0 0 1498.7207 475.65234"
   xml:space="preserve"
   sodipodi:docname="small_log_with_text.svg"
   inkscape:version="1.2.2 (b0a84865, 2022-12-01)"
   width="1498.7207"
   height="475.65234"
   xmlns:inkscape="http://www.inkscape.org/namespaces/inkscape"
   xmlns:sodipodi="http://sodipodi.sourceforge.net/DTD/sodipodi-0.dtd"
   xmlns="http://www.w3.org/2000/svg"
   xmlns:svg="http://www.w3.org/2000/svg"><defs
   id="defs7346" /><sodipodi:namedview
   id="namedview7344"
   pagecolor="#ffffff"
   bordercolor="#000000"
   borderopacity="0.25"
   inkscape:showpageshadow="2"
   inkscape:pageopacity="0.0"
   inkscape:pagecheckerboard="0"
   inkscape:deskcolor="#d1d1d1"
   showgrid="false"
   inkscape:zoom="0.15275235"
   inkscape:cx="10094.771"
   inkscape:cy="7986.7838"
   inkscape:window-width="1432"
   inkscape:window-height="864"
   inkscape:window-x="4"
   inkscape:window-y="4"
   inkscape:window-maximized="0"
   inkscape:current-layer="Layer_1" />




































<g
   id="g1326"
   inkscape:export-filename="small_logo_white.svg"
   inkscape:export-xdpi="96"
   inkscape:export-ydpi="96"
   transform="translate(-10100,-8128.9591)"><rect
     x="10165.364"
     y="8190.6748"
     style="fill:#3f2921;fill-opacity:1"
     width="26.118999"
     height="360.28601"
     id="rect7269"
     inkscape:export-filename="logo_with_text.svg"
     inkscape:export-xdpi="96"
     inkscape:export-ydpi="96" /><path
     style="fill:#9c4944;fill-opacity:1"
     d="m 10417.192,8419.524 h -108.671 c -39.358,0 -71.264,31.906 -71.264,71.264 v 104.606 h 251.199 v -104.606 c 0,-39.358 -31.906,-71.264 -71.264,-71.264 z"
     id="path7271" /><path
     style="fill:#9c4944;fill-opacity:1"
     d="m 10352.43,8419.524 h -43.91 c -39.358,0 -71.264,31.906 -71.264,71.264 v 104.606 h 43.909 v -104.606 c 10e-4,-39.358 31.907,-71.264 71.265,-71.264 z"
     id="path7273" /><g
     id="g7279"
     transform="translate(10100,8105.728)">
	<path
   style="fill:#d88a75;fill-opacity:1"
   d="m 141.384,216.395 c -14.288,-0.634 -25.661,-12.422 -25.661,-26.86 0,-14.841 12.03,-26.883 26.883,-26.883 1.337,0 2.65,0.092 3.941,0.288"
   id="path7275" />
	<path
   style="fill:#d88a75;fill-opacity:1"
   d="m 384.309,216.395 c 14.288,-0.634 25.673,-12.422 25.673,-26.86 0,-14.841 -12.041,-26.883 -26.894,-26.883 -1.337,0 -2.662,0.104 -3.941,0.288"
   id="path7277" />
</g><path
     style="fill:#f7cba4"
     d="m 10323.962,8438.322 -47.3,-34.366 c -24.995,-18.16 -38.518,-48.191 -35.546,-78.944 l 8.204,-84.898 c 5.651,-58.473 54.788,-103.091 113.533,-103.091 v 0 c 58.745,0 107.882,44.618 113.533,103.091 l 8.204,84.898 c 2.972,30.753 -10.549,60.783 -35.546,78.944 l -47.3,34.366 c -23.191,16.849 -54.592,16.849 -77.782,0 z"
     id="path7281" /><path
     style="fill:#3f2921;fill-opacity:1"
     d="m 10476.384,8240.119 h -227.059 c 5.646,-58.479 54.78,-103.095 113.523,-103.095 29.372,0 56.347,11.154 76.685,29.614 20.327,18.471 34.028,44.236 36.851,73.481 z"
     id="path7283" /><path
     style="fill:#e0b394"
     d="m 10270.551,8341.744 c -0.795,13.447 3.584,26.675 12.249,36.988 l 49.437,60.749 c 2.581,3.077 5.508,5.658 8.677,7.72 -5.946,-2.074 -11.661,-5.047 -16.95,-8.884 l -47.301,-34.361 c -24.993,-18.16 -38.509,-48.189 -35.537,-78.943 l 8.193,-84.901 c 5.6,-57.903 53.835,-102.22 111.83,-103.061 -35.721,0.864 -76.17,34.534 -78.278,70.393 z"
     id="path7285" /><path
     style="fill:#3f2921;fill-opacity:1"
     d="m 10363.85,8137.056 c -0.254,0.012 -0.495,0.012 -0.749,0.035 -35.537,1.302 -75.429,34.753 -77.526,70.359 l -2.512,32.67 -31.043,0.032 v -0.035 c 0.53,-5.427 1.429,-10.739 2.673,-15.902 0.01,-0.046 0.02,-0.092 0.03,-0.127 0.219,-0.864 0.438,-1.728 0.668,-2.593 0.23,-0.853 0.472,-1.717 0.714,-2.57 0.495,-1.705 1.037,-3.399 1.613,-5.059 1.429,-4.171 3.1,-8.227 5.001,-12.157 1.118,-2.351 2.328,-4.667 3.63,-6.925 1.694,-3.019 3.549,-5.946 5.531,-8.78 1.463,-2.132 3.019,-4.194 4.644,-6.211 12.376,-15.452 28.669,-27.551 47.301,-34.857 4.851,-1.924 9.875,-3.514 15.026,-4.736 0.853,-0.196 1.717,-0.403 2.581,-0.588 0.864,-0.184 1.728,-0.357 2.604,-0.53 0.876,-0.161 1.751,-0.323 2.627,-0.472 3.514,-0.599 7.075,-1.026 10.693,-1.268 0.899,-0.058 1.809,-0.115 2.719,-0.161 1.258,-0.067 2.514,-0.102 3.77,-0.125 z"
     id="path7287" /><path
     style="fill:#dad4cb;fill-opacity:1"
     d="m 10108.066,8595.393 v -32.444 c 0,-6.625 5.371,-11.995 11.995,-11.995 h 116.723 c 6.625,0 11.995,5.371 11.995,11.995 v 32.444"
     id="path7289" /><path
     style="fill:#d88a75;fill-opacity:1"
     d="m 10385.538,8199.121 h -45.371 c -7.412,0 -13.42,6.008 -13.42,13.42 v 27.574 h 72.21 v -27.574 c 0,-7.412 -6.007,-13.42 -13.419,-13.42 z"
     id="path7291" /><rect
     x="10398.489"
     y="8509.4443"
     style="fill:#cf8787;fill-opacity:1"
     width="60.494999"
     height="31.111"
     id="rect7293" /><path
     d="m 10295.015,8424.8783 c -3.484,-5.1787 -10.963,-6.8275 -16.699,-3.6848 -30.761,16.8511 -49.125,46.2732 -49.125,78.7035 v 46.0574 c 0,6.0583 5.441,10.9692 12.156,10.9692 6.715,0 12.155,-4.9109 12.155,-10.9692 v -46.0574 c 0,-24.7003 13.993,-47.1096 37.428,-59.9497 5.739,-3.1428 7.567,-9.889 4.085,-15.069 z"
     id="path7305"
     style="stroke-width:1.33617" /><path
     d="m 10488.378,8566.317 c -5.136,0 -9.296,3.869 -9.296,8.642 v 12.367 h -116.514 v -108.775 c 0,-4.773 -4.16,-8.642 -9.296,-8.642 -5.135,0 -9.296,3.869 -9.296,8.642 v 108.775 h -83.811 c -5.135,0 -9.296,3.869 -9.296,8.642 0,4.773 4.161,8.642 9.296,8.642 h 228.214 c 5.135,0 9.296,-3.869 9.296,-8.642 v -21.01 c -10e-4,-4.771 -4.162,-8.641 -9.297,-8.641 z"
     id="path7307"
     style="stroke-width:1.03715" /><path
     d="m 10453.274,8414.8589 c -5.184,-3.4891 -11.941,-1.66 -15.091,4.0909 -3.146,5.7495 -1.494,13.2407 3.69,16.7298 21.186,14.2624 33.835,39.1429 33.835,66.5572 v 83.0686 c 0,6.726 4.916,12.1782 10.984,12.1782 6.068,0 10.984,-5.4522 10.984,-12.1782 v -83.0686 c 0,-35.9976 -16.602,-68.6639 -44.402,-87.3779 z"
     id="path7309"
     style="stroke-width:1.33831" /><path
     d="m 10237.361,8542.887 h -36.66 v -351.64 c 0,-4.773 -3.868,-8.642 -8.642,-8.642 h -26.118 c -4.774,0 -8.642,3.869 -8.642,8.642 v 86.3391 c 0,4.773 3.868,-3.5561 8.642,-3.5561 4.774,0 8.642,29.2401 8.642,24.4671 V 8199.89 h 8.833 v 342.998 h -8.833 v -273.669 c 0,-4.773 -3.868,-8.642 -8.642,-8.642 -4.774,0 -8.642,3.869 -8.642,8.642 v 273.669 h -36.662 c -11.38,0 -20.637,9.257 -20.637,20.637 v 32.444 c 0,4.773 3.868,8.642 8.642,8.642 4.774,0 8.642,-3.869 8.642,-8.642 v -32.444 c 0,-1.849 1.505,-3.353 3.353,-3.353 h 45.303 26.118 45.302 c 1.848,0 3.353,1.504 3.353,3.353 v 32.444 c 0,4.773 3.868,8.642 8.642,8.642 4.774,0 8.642,-3.869 8.642,-8.642 v -32.444 c 0,-11.38 -9.256,-20.638 -20.636,-20.638 z"
     id="path7313"
     sodipodi:nodetypes="scsssssssccccssscsssssssccssssscs" /><path
     d="m 10134.444,8569.774 c -4.774,0 -8.642,3.869 -8.642,8.642 v 17.553 c 0,4.773 3.868,8.642 8.642,8.642 4.774,0 8.642,-3.869 8.642,-8.642 v -17.553 c 0,-4.772 -3.869,-8.642 -8.642,-8.642 z"
     id="path7315" /><path
     d="m 10223.555,8569.774 c -4.774,0 -8.642,3.869 -8.642,8.642 v 17.553 c 0,4.773 3.868,8.642 8.642,8.642 4.774,0 8.642,-3.869 8.642,-8.642 v -17.553 c 0,-4.772 -3.869,-8.642 -8.642,-8.642 z"
     id="path7317" /><path
     d="m 10164.148,8569.774 c -4.774,0 -8.642,3.869 -8.642,8.642 v 17.553 c 0,4.773 3.868,8.642 8.642,8.642 4.774,0 8.642,-3.869 8.642,-8.642 v -17.553 c 0,-4.772 -3.868,-8.642 -8.642,-8.642 z"
     id="path7319" /><path
     d="m 10193.85,8569.774 c -4.774,0 -8.642,3.869 -8.642,8.642 v 17.553 c 0,4.773 3.868,8.642 8.642,8.642 4.774,0 8.642,-3.869 8.642,-8.642 v -17.553 c 0,-4.772 -3.868,-8.642 -8.642,-8.642 z"
     id="path7321" /><path
     d="m 10390.417,8510.021 v 31.111 c 0,4.773 3.868,8.642 8.642,8.642 h 60.492 c 4.774,0 8.642,-3.869 8.642,-8.642 v -31.111 c 0,-4.773 -3.868,-8.642 -8.642,-8.642 h -60.492 c -4.772,0 -8.642,3.869 -8.642,8.642 z m 17.284,8.642 h 43.207 v 13.826 h -43.207 z"
     id="path7329" /><path
     d="m 10232.751,8329.819 c -1.364,31.891 13.432,62.833 39.408,81.705 l 47.3,34.366 c 13.151,9.555 28.557,14.332 43.97,14.331 15.407,0 30.821,-4.779 43.969,-14.331 l 47.301,-34.366 c 25.978,-18.874 40.774,-49.817 39.407,-81.709 14.608,-4.452 25.092,-17.992 25.092,-33.976 0,-18.272 -13.872,-33.36 -31.64,-35.307 l -1.082,-11.194 h 30.108 c 4.774,0 8.642,-3.869 8.642,-8.642 0,-4.773 -3.868,-8.642 -8.642,-8.642 h -32.061 c -4.424,-27.393 -17.933,-52.458 -38.611,-71.233 -22.628,-20.546 -51.922,-31.862 -82.485,-31.862 -30.564,0 -59.859,11.315 -82.487,31.862 -22.629,20.546 -36.708,48.616 -39.648,79.039 l -1.998,20.672 c -17.768,1.942 -31.642,17.033 -31.642,35.308 0,15.988 10.491,29.53 25.099,33.979 z m 269.165,-33.979 c 0,6.87 -3.776,12.85 -9.4,15.962 l -3.218,-33.303 c 7.313,2.378 12.618,9.248 12.618,17.341 z m -25.351,30.58 c 2.665,27.581 -9.605,54.834 -32.023,71.122 l -47.302,34.366 c -20.224,14.693 -47.398,14.694 -67.622,0 l -47.3,-34.366 c -22.418,-16.288 -34.689,-43.539 -32.024,-71.122 l 7.45,-77.082 h 211.372 z m -140.599,-94.372 v -18.931 c 0,-2.634 2.143,-4.777 4.777,-4.777 h 45.371 c 2.634,0 4.777,2.143 4.777,4.777 v 18.931 z m -43.405,-58.432 c 19.44,-17.652 44.609,-27.374 70.868,-27.374 26.258,0 51.427,9.722 70.867,27.374 17.069,15.498 28.471,35.981 32.71,58.437 h -58.83 v -18.937 c 0,-12.165 -9.897,-22.062 -22.062,-22.062 h -45.371 c -12.166,0 -22.062,9.897 -22.062,22.062 v 18.937 h -58.83 c 4.24,-22.457 15.643,-42.938 32.71,-58.437 z m -55,104.878 -3.219,33.312 c -5.624,-3.11 -9.402,-9.093 -9.402,-15.966 0,-8.096 5.307,-14.97 12.621,-17.346 z"
     id="path7331" /><circle
     cx="10329.882"
     cy="8492.3896"
     r="8.6420002"
     id="circle7335" /><circle
     cx="10329.882"
     cy="8526.8438"
     r="8.6420002"
     id="circle7337" /><circle
     cx="10329.882"
     cy="8561.3203"
     r="8.6420002"
     id="circle7339" /><path
     style="fill:#d88a75;fill-opacity:1;stroke:#000000;stroke-width:2.10002"
     d="m 10256.57,8247.2945 c -4.667,32.9782 -8.483,66.5085 -7.272,99.8164 3.708,27.0576 24.028,47.1965 45.68,61.7477 21.301,14.1989 41.035,37.0486 68.894,35.4395 29.823,0.3461 50.941,-24.0534 73.728,-39.6891 20.05,-13.3113 36.082,-33.1532 40.181,-57.3464 1.318,-32.7718 -3.134,-65.7729 -7.179,-98.306 -8.797,-6.0357 -25.312,-0.91 -37.069,-2.6096 -58.614,0 -117.229,0 -175.843,0 z"
     id="path9534" /><path
     style="fill:#ffffff;stroke-width:1.08435"
     d="m 10933.463,8483.5572 c -28.852,-4.1067 -45.753,-17.9011 -52.962,-43.2254 -1.998,-7.0195 -2.23,-12.0744 -2.857,-62.3981 -0.474,-38.0216 -1.08,-55.9177 -1.981,-58.5479 -0.714,-2.0834 -1.297,-3.9133 -1.297,-4.0663 0,-0.1531 8.051,-0.2783 17.891,-0.2783 h 17.892 v 55.645 c 0,35.3822 0.429,57.988 1.178,62.0793 3.481,19.0056 17.807,29.6237 38.302,28.3885 15.721,-0.9475 26.074,-8.1905 30.754,-21.5155 2.415,-6.8752 2.44,-7.5358 2.429,-65.7711 l -0.01,-58.8262 h 13.012 13.012 v 56.8332 c 0,45.7612 -0.314,58.4889 -1.612,65.3322 -4.28,22.5593 -18.892,38.0301 -41.344,43.7723 -8.21,2.0998 -25.887,3.5062 -32.406,2.5783 z m 589.98,-0.483 c -12.213,-1.9219 -29.067,-7.5109 -35.067,-11.6284 -1.037,-0.7122 -0.312,-3.3572 3.064,-11.1679 2.433,-5.6291 4.87,-11.352 5.416,-12.7176 l 0.991,-2.4828 5.704,4.2584 c 11.863,8.8577 22.775,12.5282 35.364,11.8961 9.951,-0.4996 17.276,-3.7657 22.261,-9.9253 2.827,-3.4916 3.378,-5.1961 3.737,-11.5403 0.761,-13.4777 -3.884,-18.4787 -29.027,-31.2477 -21.885,-11.1139 -27.441,-14.6624 -33.126,-21.1554 -11.295,-12.9003 -13.399,-33.9766 -5.028,-50.3623 5.016,-9.8173 17.886,-18.6977 32.667,-22.5392 10.94,-2.8433 29.67,-2.5746 41.205,0.5909 10.213,2.8026 20.153,6.8793 23.008,9.4365 1.739,1.5576 1.544,2.0722 -2.938,7.7669 -2.641,3.3543 -6.219,7.7923 -7.953,9.8623 l -3.151,3.7637 -4.061,-3.097 c -2.233,-1.7034 -7.3,-4.2407 -11.259,-5.6384 -15.859,-5.5979 -31.517,-2.0878 -36.749,8.2381 -2.949,5.8213 -3.05,9.9862 -0.379,15.7414 3.194,6.884 8.151,10.6152 26.675,20.0782 28.476,14.5468 34.463,19.3292 40.413,32.2823 3.442,7.4934 4.557,21.9804 2.429,31.5527 -3.806,17.1162 -16.726,30.0018 -36.196,36.0985 -7.798,2.4417 -28.187,3.4806 -38,1.9363 z m -835,-7.8423 c -2.361,-3.7151 -11.828,-18.2218 -21.037,-32.237 -19.87,-30.2386 -26.833,-40.8864 -43.258,-66.1456 -6.786,-10.4368 -12.673,-19.318 -13.081,-19.7358 -0.408,-0.4179 -0.604,27.2738 -0.436,61.537 l 0.305,62.2967 h -13.019 -13.019 l -0.397,-79.4288 c -0.218,-43.6859 -0.774,-81.0147 -1.235,-82.953 l -0.838,-3.5242 18.829,0.029 18.828,0.029 18.249,27.8933 c 30.63,46.8178 53.466,81.5361 53.946,82.0167 0.251,0.2511 0.456,-24.2669 0.456,-54.4845 v -54.941 l 12.742,-0.3055 12.741,-0.3055 v 83.5296 83.5296 l -12.741,-0.023 -12.742,-0.022 -4.293,-6.7547 z m 59.036,-69.9183 c -0.01,-62.2806 -0.294,-76.7823 -1.588,-82.1397 -0.864,-3.5784 -1.588,-6.8721 -1.609,-7.3194 -0.02,-0.4473 14.058,-0.8133 31.288,-0.8133 35.777,0 44.635,1.098 57.152,7.0842 16.562,7.9212 24.294,21.3991 24.294,42.3485 0,20.4418 -8.34,33.8878 -26.548,42.8002 -10.571,5.1746 -22.993,7.5276 -39.74,7.5276 h -11.786 v 33.0727 33.0728 h -15.723 -15.723 l -0.02,-75.6336 z m 59.787,-14.956 c 6.172,-2.1775 11.076,-7.0307 14.021,-13.8748 1.959,-4.5554 2.283,-6.9502 1.88,-13.9122 -0.609,-10.5159 -4.347,-17.3628 -11.738,-21.5011 -4.31,-2.4128 -6.339,-2.7488 -18.661,-3.0909 l -13.826,-0.3837 v 27.2177 27.2177 h 11.792 c 7.854,0 13.375,-0.5586 16.532,-1.6727 z m 230.81,14.4138 c -0.02,-70.1648 -0.327,-79.6796 -2.797,-87.8326 -0.531,-1.7523 0.757,-1.8976 16.832,-1.8976 h 17.408 l 0.286,34.4282 0.286,34.4282 34.428,0.2864 34.429,0.2863 v -34.7145 -34.7146 h 15.723 15.723 v 82.953 82.953 h -15.723 -15.723 v -36.868 -36.868 h -34.7 -34.699 v 36.868 36.868 h -15.723 -15.723 z m 161.595,-0.5569 c 0,-65.0019 -0.249,-77.7244 -1.614,-82.2237 -0.889,-2.9277 -1.621,-5.689 -1.627,-6.1363 -0.02,-1.3077 70.759,-0.9564 79.481,0.3945 42.73,6.6182 67.788,43.9002 62.665,93.2327 -2.248,21.6502 -8.676,35.6533 -22.848,49.7784 -6.924,6.9007 -11.292,10.2255 -17.381,13.2299 -15.166,7.4836 -16.803,7.7074 -59.91,8.1906 l -38.766,0.4346 z m 76.173,50.8322 c 17.972,-7.0539 29.068,-28.3392 29.176,-55.9681 0.11,-28.194 -9.405,-47.3924 -28.057,-56.6106 l -8.231,-4.068 -18.265,-0.4188 -18.265,-0.4188 v 60.414 60.414 l 18.705,-0.449 c 16.178,-0.3883 19.547,-0.7794 24.937,-2.8947 z m 68.046,25.4435 c 0,-0.2513 2.401,-7.2047 5.335,-15.452 2.934,-8.2473 10.767,-30.3657 17.407,-49.1521 20.733,-58.6592 31.571,-89.2564 33.608,-94.8809 l 1.964,-5.4218 h 12.844 12.845 l 3.446,9.7592 c 1.895,5.3675 7.605,21.4702 12.688,35.7836 5.083,14.3135 10.937,30.9041 13.008,36.868 2.072,5.964 9.423,26.8338 16.336,46.3775 6.913,19.5437 12.57,35.7807 12.57,36.0823 0,0.3016 -7.642,0.4139 -16.982,0.2497 l -16.981,-0.2987 -7.688,-22.2292 c -4.228,-12.2261 -8.082,-22.8392 -8.565,-23.5847 -0.656,-1.0145 -6.691,-1.3554 -23.994,-1.3554 -17.214,0 -23.383,0.3461 -24.161,1.3554 -0.93,1.2073 -3.515,8.2611 -13.91,37.9524 l -2.942,8.4037 h -13.414 c -7.378,0 -13.414,-0.2056 -13.414,-0.457 z m 83.52,-70.8392 c 0.07,-2.2192 -15.774,-52.165 -16.328,-51.484 -0.354,0.4348 -1.785,4.9382 -3.18,10.0075 -1.396,5.0694 -4.658,16.2509 -7.25,24.8478 -2.592,8.597 -4.713,16.0383 -4.713,16.5364 0,1.1239 31.437,1.2161 31.471,0.092 z"
     id="path14660" /></g></svg>
