<?xml version="1.0" encoding="UTF-8" standalone="no"?>
<!-- Uploaded to: SVG Repo, www.svgrepo.com, Generator: SVG Repo Mixer Tools -->

<svg
   version="1.1"
   id="Layer_1"
   viewBox="0 0 1452.8916 475.65234"
   xml:space="preserve"
   sodipodi:docname="small_log_with_text.svg"
   inkscape:version="1.2.2 (b0a84865, 2022-12-01)"
   width="1452.8916"
   height="475.65234"
   xmlns:inkscape="http://www.inkscape.org/namespaces/inkscape"
   xmlns:sodipodi="http://sodipodi.sourceforge.net/DTD/sodipodi-0.dtd"
   xmlns="http://www.w3.org/2000/svg"
   xmlns:svg="http://www.w3.org/2000/svg"><defs
   id="defs7346" /><sodipodi:namedview
   id="namedview7344"
   pagecolor="#ffffff"
   bordercolor="#000000"
   borderopacity="0.25"
   inkscape:showpageshadow="2"
   inkscape:pageopacity="0.0"
   inkscape:pagecheckerboard="0"
   inkscape:deskcolor="#d1d1d1"
   showgrid="false"
   inkscape:zoom="0.46117805"
   inkscape:cx="754.58925"
   inkscape:cy="505.22786"
   inkscape:window-width="1432"
   inkscape:window-height="864"
   inkscape:window-x="4"
   inkscape:window-y="4"
   inkscape:window-maximized="0"
   inkscape:current-layer="Layer_1" />




































<g
   id="g14973"
   transform="translate(0,-23.231068)"><rect
     x="65.363998"
     y="84.946999"
     style="fill:#3f2921;fill-opacity:1"
     width="26.118999"
     height="360.28601"
     id="rect7269"
     inkscape:export-filename="logo_with_text.svg"
     inkscape:export-xdpi="96"
     inkscape:export-ydpi="96" /><path
     style="fill:#9c4944;fill-opacity:1"
     d="M 317.192,313.796 H 208.521 c -39.358,0 -71.264,31.906 -71.264,71.264 V 489.666 H 388.456 V 385.06 c 0,-39.358 -31.906,-71.264 -71.264,-71.264 z"
     id="path7271" /><path
     style="fill:#9c4944;fill-opacity:1"
     d="m 252.43,313.796 h -43.91 c -39.358,0 -71.264,31.906 -71.264,71.264 v 104.606 h 43.909 V 385.06 c 0.001,-39.358 31.907,-71.264 71.265,-71.264 z"
     id="path7273" /><g
     id="g7279">
	<path
   style="fill:#d88a75;fill-opacity:1"
   d="m 141.384,216.395 c -14.288,-0.634 -25.661,-12.422 -25.661,-26.86 0,-14.841 12.03,-26.883 26.883,-26.883 1.337,0 2.65,0.092 3.941,0.288"
   id="path7275" />
	<path
   style="fill:#d88a75;fill-opacity:1"
   d="m 384.309,216.395 c 14.288,-0.634 25.673,-12.422 25.673,-26.86 0,-14.841 -12.041,-26.883 -26.894,-26.883 -1.337,0 -2.662,0.104 -3.941,0.288"
   id="path7277" />
</g><path
     style="fill:#f7cba4"
     d="m 223.962,332.594 -47.3,-34.366 c -24.995,-18.16 -38.518,-48.191 -35.546,-78.944 l 8.204,-84.898 C 154.971,75.913 204.108,31.295 262.853,31.295 v 0 c 58.745,0 107.882,44.618 113.533,103.091 l 8.204,84.898 c 2.972,30.753 -10.549,60.783 -35.546,78.944 l -47.3,34.366 c -23.191,16.849 -54.592,16.849 -77.782,0 z"
     id="path7281" /><path
     style="fill:#3f2921;fill-opacity:1"
     d="M 376.384,134.391 H 149.325 c 5.646,-58.479 54.78,-103.095 113.523,-103.095 29.372,0 56.347,11.154 76.685,29.614 20.327,18.471 34.028,44.236 36.851,73.481 z"
     id="path7283" /><path
     style="fill:#e0b394"
     d="m 170.551,236.016 c -0.795,13.447 3.584,26.675 12.249,36.988 l 49.437,60.749 c 2.581,3.077 5.508,5.658 8.677,7.72 -5.946,-2.074 -11.661,-5.047 -16.95,-8.884 l -47.301,-34.361 c -24.993,-18.16 -38.509,-48.189 -35.537,-78.943 l 8.193,-84.901 c 5.6,-57.903 53.835,-102.22 111.83,-103.061 -35.721,0.864 -76.17,34.534 -78.278,70.393 z"
     id="path7285" /><path
     style="fill:#3f2921;fill-opacity:1"
     d="m 263.85045,31.328 c -0.254,0.012 -0.495,0.012 -0.749,0.035 -35.537,1.302 -75.429,34.753 -77.526,70.359 l -2.512,32.67 -31.043,0.032 v -0.035 c 0.53,-5.427 1.429,-10.739 2.673,-15.902 0.012,-0.046 0.023,-0.092 0.035,-0.127 0.219,-0.864 0.438,-1.728 0.668,-2.593 0.23,-0.853 0.472,-1.717 0.714,-2.57 0.495,-1.705 1.037,-3.399 1.613,-5.059 1.429,-4.171 3.1,-8.227 5.001,-12.157 1.118,-2.351 2.328,-4.667 3.63,-6.925 1.694,-3.019 3.549,-5.946 5.531,-8.78 1.463,-2.132 3.019,-4.194 4.644,-6.211 12.376,-15.452 28.669,-27.551 47.301,-34.857 4.851,-1.924 9.875,-3.514 15.026,-4.736 0.853,-0.196 1.717,-0.403 2.581,-0.588 0.864,-0.184 1.728,-0.357 2.604,-0.53 0.876,-0.161 1.751,-0.323 2.627,-0.472 3.514,-0.599 7.075,-1.026 10.693,-1.268 0.899,-0.058 1.809,-0.115 2.719,-0.161 1.258,-0.067 2.514,-0.102 3.77,-0.125 z"
     id="path7287" /><path
     style="fill:#dad4cb;fill-opacity:1"
     d="m 8.066,489.665 v -32.444 c 0,-6.625 5.371,-11.995 11.995,-11.995 h 116.723 c 6.625,0 11.995,5.371 11.995,11.995 v 32.444"
     id="path7289" /><path
     style="fill:#d88a75;fill-opacity:1"
     d="m 285.538,93.393 h -45.371 c -7.412,0 -13.42,6.008 -13.42,13.42 v 27.574 h 72.21 v -27.574 c 0.001,-7.412 -6.007,-13.42 -13.419,-13.42 z"
     id="path7291" /><rect
     x="298.48901"
     y="403.716"
     style="fill:#cf8787;fill-opacity:1"
     width="60.494999"
     height="31.111"
     id="rect7293" /><path
     d="m 195.01467,319.15029 c -3.4841,-5.1787 -10.96288,-6.8275 -16.69891,-3.68475 -30.76047,16.85107 -49.12476,46.27316 -49.12476,78.70348 v 46.05738 c 0,6.05832 5.44065,10.96919 12.15565,10.96919 6.71501,0 12.15566,-4.91087 12.15566,-10.96919 v -46.05738 c 0,-24.70035 13.99264,-47.10963 37.42765,-59.94975 5.73884,-3.14276 7.5674,-9.88902 4.08471,-15.06898 z"
     id="path7305"
     style="stroke-width:1.33617" /><path
     d="m 388.37781,460.589 c -5.13534,0 -9.29611,3.869 -9.29611,8.642 v 12.367 H 262.56837 V 372.823 c 0,-4.773 -4.16077,-8.642 -9.29611,-8.642 -5.13534,0 -9.29611,3.869 -9.29611,8.642 v 108.775 h -83.81129 c -5.13534,0 -9.29611,3.869 -9.29611,8.642 0,4.773 4.16077,8.642 9.29611,8.642 h 228.21403 c 5.13534,0 9.29611,-3.869 9.29611,-8.642 v -21.01 c -0.001,-4.771 -4.16184,-8.641 -9.29719,-8.641 z"
     id="path7307"
     style="stroke-width:1.03715" /><path
     d="m 353.27396,309.13094 c -5.18437,-3.48915 -11.94096,-1.66003 -15.09047,4.09086 -3.14697,5.74946 -1.49469,13.2407 3.68968,16.72984 21.18614,14.26234 33.83503,39.14288 33.83503,66.55716 v 83.06858 c 0,6.72603 4.91619,12.17817 10.9839,12.17817 6.06771,0 10.9839,-5.45214 10.9839,-12.17817 V 396.5088 c -0.003,-35.9976 -16.60167,-68.66389 -44.40204,-87.37786 z"
     id="path7309"
     style="stroke-width:1.33831" /><path
     d="m 137.361,437.159 h -36.66 V 85.519 c 0,-4.773 -3.868,-8.642 -8.642,-8.642 H 65.941 c -4.774,0 -8.642,3.869 -8.642,8.642 v 86.33908 c 0,4.773 3.868,-3.55607 8.642,-3.55607 4.774,0 8.642,29.24005 8.642,24.46706 V 94.162 h 8.833 V 437.16 H 74.583 V 163.491 c 0,-4.773 -3.868,-8.642 -8.642,-8.642 -4.774,0 -8.642,3.869 -8.642,8.642 V 437.16 H 20.637 C 9.257,437.16 0,446.417 0,457.797 v 32.444 c 0,4.773 3.868,8.642 8.642,8.642 4.774,0 8.642,-3.869 8.642,-8.642 v -32.444 c 0,-1.849 1.505,-3.353 3.353,-3.353 H 65.94 92.058 137.36 c 1.848,0 3.353,1.504 3.353,3.353 v 32.444 c 0,4.773 3.868,8.642 8.642,8.642 4.774,0 8.642,-3.869 8.642,-8.642 v -32.444 c 10e-4,-11.38 -9.256,-20.638 -20.636,-20.638 z"
     id="path7313"
     sodipodi:nodetypes="scsssssssccccssscsssssssccssssscs" /><path
     d="m 34.444,464.046 c -4.774,0 -8.642,3.869 -8.642,8.642 v 17.553 c 0,4.773 3.868,8.642 8.642,8.642 4.774,0 8.642,-3.869 8.642,-8.642 v -17.553 c 0,-4.772 -3.869,-8.642 -8.642,-8.642 z"
     id="path7315" /><path
     d="m 123.555,464.046 c -4.774,0 -8.642,3.869 -8.642,8.642 v 17.553 c 0,4.773 3.868,8.642 8.642,8.642 4.774,0 8.642,-3.869 8.642,-8.642 v -17.553 c 0,-4.772 -3.869,-8.642 -8.642,-8.642 z"
     id="path7317" /><path
     d="m 64.148,464.046 c -4.774,0 -8.642,3.869 -8.642,8.642 v 17.553 c 0,4.773 3.868,8.642 8.642,8.642 4.774,0 8.642,-3.869 8.642,-8.642 v -17.553 c 0,-4.772 -3.868,-8.642 -8.642,-8.642 z"
     id="path7319" /><path
     d="m 93.85,464.046 c -4.774,0 -8.642,3.869 -8.642,8.642 v 17.553 c 0,4.773 3.868,8.642 8.642,8.642 4.774,0 8.642,-3.869 8.642,-8.642 v -17.553 c 10e-4,-4.772 -3.868,-8.642 -8.642,-8.642 z"
     id="path7321" /><path
     d="m 290.417,404.293 v 31.111 c 0,4.773 3.868,8.642 8.642,8.642 h 60.492 c 4.774,0 8.642,-3.869 8.642,-8.642 v -31.111 c 0,-4.773 -3.868,-8.642 -8.642,-8.642 h -60.492 c -4.772,0 -8.642,3.869 -8.642,8.642 z m 17.284,8.642 h 43.207 v 13.826 h -43.207 z"
     id="path7329" /><path
     d="m 132.751,224.091 c -1.364,31.891 13.432,62.833 39.408,81.705 l 47.3,34.366 c 13.151,9.555 28.557,14.332 43.97,14.331 15.407,-10e-4 30.821,-4.779 43.969,-14.331 l 47.301,-34.366 c 25.978,-18.874 40.774,-49.817 39.407,-81.709 14.608,-4.452 25.092,-17.992 25.092,-33.976 0,-18.272 -13.872,-33.36 -31.64,-35.307 l -1.082,-11.194 h 30.108 c 4.774,0 8.642,-3.869 8.642,-8.642 0,-4.773 -3.868,-8.642 -8.642,-8.642 H 384.523 C 380.099,98.933 366.59,73.868 345.912,55.093 323.284,34.547 293.99,23.231 263.427,23.231 c -30.564,0 -59.859,11.315 -82.487,31.862 -22.629,20.546 -36.708,48.616 -39.648,79.039 l -1.998,20.672 c -17.768,1.942 -31.642,17.033 -31.642,35.308 0.004,15.988 10.491,29.53 25.099,33.979 z m 269.165,-33.979 c 0,6.87 -3.776,12.85 -9.4,15.962 l -3.218,-33.303 c 7.313,2.378 12.618,9.248 12.618,17.341 z m -25.351,30.58 c 2.665,27.581 -9.605,54.834 -32.023,71.122 L 297.24,326.18 c -20.224,14.693 -47.398,14.694 -67.622,0 l -47.3,-34.366 C 159.9,275.526 147.629,248.275 150.294,220.692 l 7.45,-77.082 H 369.116 Z M 235.966,126.32 v -18.931 c 0,-2.634 2.143,-4.777 4.777,-4.777 h 45.371 c 2.634,0 4.777,2.143 4.777,4.777 V 126.32 Z M 192.561,67.888 c 19.44,-17.652 44.609,-27.374 70.868,-27.374 26.258,0 51.427,9.722 70.867,27.374 17.069,15.498 28.471,35.981 32.71,58.437 h -58.83 v -18.937 c 0,-12.165 -9.897,-22.062 -22.062,-22.062 h -45.371 c -12.166,0 -22.062,9.897 -22.062,22.062 v 18.937 h -58.83 c 4.24,-22.457 15.643,-42.938 32.71,-58.437 z m -55,104.878 -3.219,33.312 c -5.624,-3.11 -9.402,-9.093 -9.402,-15.966 0,-8.096 5.307,-14.97 12.621,-17.346 z"
     id="path7331" /><circle
     cx="229.882"
     cy="386.66199"
     r="8.6420002"
     id="circle7335" /><circle
     cx="229.882"
     cy="421.116"
     r="8.6420002"
     id="circle7337" /><circle
     cx="229.882"
     cy="455.59201"
     r="8.6420002"
     id="circle7339" /><path
     style="fill:#d88a75;fill-opacity:1;stroke:#000000;stroke-width:2.10002"
     d="m 156.57012,141.56649 c -4.66664,32.97821 -8.48311,66.50852 -7.27213,99.81637 3.70795,27.05765 24.02778,47.19651 45.67951,61.7477 21.3015,14.19893 41.03501,37.04865 68.8944,35.43956 29.82287,0.34607 50.94073,-24.05342 73.72824,-39.68912 20.05008,-13.31134 36.08162,-33.15323 40.18121,-57.34638 1.31773,-32.77184 -3.13438,-65.77289 -7.17941,-98.30605 -8.79714,-6.03569 -25.3115,-0.91 -37.06858,-2.60955 -58.6145,0 -117.229,0 -175.84351,0 z"
     id="path9534" /><path
     style="fill:#000000;stroke-width:1.08435"
     d="m 787.63275,377.82919 c -28.85146,-4.10669 -45.75307,-17.90108 -52.96193,-43.2254 -1.99816,-7.01949 -2.2296,-12.07441 -2.85708,-62.39811 -0.47408,-38.02159 -1.07947,-55.9177 -1.98049,-58.54788 -0.71376,-2.08344 -1.29773,-3.91329 -1.29773,-4.06632 0,-0.15307 8.05134,-0.27827 17.89182,-0.27827 h 17.89184 v 55.64503 c 0,35.38211 0.42904,57.98799 1.17823,62.07922 3.48036,19.00567 17.80616,29.62373 38.30155,28.38852 15.72069,-0.94746 26.07393,-8.19051 30.75436,-21.51551 2.41495,-6.8752 2.43933,-7.53579 2.42846,-65.77111 l -0.0101,-58.82615 h 13.01223 13.01224 v 56.83315 c 0,45.76122 -0.31409,58.4889 -1.61228,65.33227 -4.27945,22.55931 -18.89178,38.03007 -41.34345,43.77224 -8.21015,2.09982 -25.88765,3.50625 -32.40679,2.57832 z m 589.97995,-0.48301 c -12.213,-1.92191 -29.067,-7.51085 -35.0667,-11.62842 -1.0375,-0.71213 -0.3119,-3.35714 3.0642,-11.16787 2.4331,-5.62911 4.87,-11.35201 5.4156,-12.71755 l 0.9916,-2.48285 5.7034,4.25839 c 11.8634,8.85767 22.7749,12.52821 35.3646,11.89611 9.9501,-0.49956 17.2756,-3.76574 22.2609,-9.92525 2.8262,-3.49165 3.3779,-5.19611 3.7365,-11.54039 0.7616,-13.47764 -3.8842,-18.47867 -29.0271,-31.24766 -21.8843,-11.11389 -27.4403,-14.66236 -33.1254,-21.15544 -11.2949,-12.9003 -13.399,-33.97657 -5.028,-50.3623 5.0153,-9.81722 17.8861,-18.69766 32.6667,-22.53918 10.9397,-2.84323 29.6704,-2.57462 41.2054,0.59092 10.2127,2.80264 20.1521,6.87936 23.0073,9.43655 1.7392,1.55755 1.5445,2.07211 -2.9381,7.76683 -2.6403,3.35431 -6.2187,7.79237 -7.9523,9.86237 l -3.1516,3.76363 -4.0603,-3.09702 c -2.2334,-1.70337 -7.3003,-4.24064 -11.2599,-5.63838 -15.8584,-5.59788 -31.5163,-2.08776 -36.7481,8.23812 -2.9496,5.82132 -3.0501,9.98619 -0.3796,15.74143 3.1939,6.88397 8.1511,10.61522 26.6751,20.07821 28.4757,14.5468 34.4627,19.32918 40.4128,32.28229 3.4422,7.49339 4.5576,21.98038 2.4292,31.55272 -3.8056,17.11615 -16.7261,30.00178 -36.1961,36.09847 -7.7974,2.44165 -28.1869,3.48057 -38.0001,1.93627 z m -834.99953,-7.84233 c -2.36131,-3.71509 -11.82822,-18.22172 -21.03758,-32.23699 -19.86959,-30.23858 -26.83298,-40.8864 -43.25735,-66.14553 -6.78644,-10.43688 -12.67281,-19.31804 -13.0808,-19.73586 -0.40799,-0.41787 -0.60456,27.27378 -0.43679,61.537 l 0.30504,62.29674 h -13.01901 -13.01903 l -0.39661,-79.42885 c -0.21813,-43.68586 -0.77368,-81.0147 -1.23457,-82.95299 l -0.838,-3.52416 18.82817,0.0288 18.82814,0.0288 18.24909,27.89325 c 30.63047,46.81786 53.46642,81.53618 53.94652,82.01676 0.25082,0.25111 0.45604,-24.26693 0.45604,-54.48449 v -54.94101 l 12.74115,-0.3055 12.74115,-0.3055 v 83.52958 83.52958 l -12.74115,-0.0227 -12.74115,-0.0225 -4.29326,-6.7547 z m 59.03614,-69.91826 c -0.0153,-62.28057 -0.29429,-76.78224 -1.58789,-82.13972 -0.86405,-3.57837 -1.58837,-6.87209 -1.60962,-7.31938 -0.0213,-0.44729 14.0583,-0.81328 31.28781,-0.81328 35.77768,0 44.63555,1.09798 57.15214,7.08422 16.56221,7.92113 24.29413,21.39909 24.29413,42.34849 0,20.4418 -8.34013,33.88779 -26.54765,42.80021 -10.57129,5.17458 -22.99335,7.52757 -39.73989,7.52757 h -11.78586 v 33.07275 33.07276 h -15.72312 -15.72311 l -0.0168,-75.63362 z m 59.78707,-14.95596 c 6.17193,-2.17758 11.07588,-7.03072 14.02015,-13.87484 1.95966,-4.55539 2.28336,-6.95023 1.88034,-13.91223 -0.60878,-10.51583 -4.34673,-17.36272 -11.73822,-21.50109 -4.30953,-2.41279 -6.3382,-2.74882 -18.66067,-3.09085 l -13.8255,-0.38376 v 27.21769 27.21773 h 11.79153 c 7.85405,0 13.37463,-0.55855 16.53237,-1.67265 z m 230.8099,14.41379 c -0.0245,-70.16478 -0.32749,-79.67961 -2.79774,-87.83258 -0.53092,-1.75232 0.75785,-1.89763 16.83256,-1.89763 h 17.40748 l 0.2863,34.42822 0.28635,34.42821 34.42824,0.28632 34.42813,0.2863 v -34.71451 -34.71454 h 15.7231 15.7232 v 82.953 82.953 h -15.7232 -15.7231 v -36.868 -36.86799 h -34.69926 -34.69931 v 36.86799 36.868 H 907.99591 892.2728 Z m 161.59512,-0.55695 c 0,-65.00185 -0.2499,-77.72433 -1.6147,-82.2237 -0.8883,-2.92766 -1.6203,-5.68899 -1.6266,-6.13628 -0.019,-1.30768 70.7585,-0.95635 79.4805,0.39453 42.73,6.61816 67.7888,43.90018 62.6655,93.23266 -2.2485,21.65022 -8.6759,35.65334 -22.8482,49.77846 -6.9237,6.90066 -11.2915,10.2255 -17.3805,13.22984 -15.1667,7.48361 -16.8037,7.70744 -59.9104,8.19063 l -38.7656,0.43455 z m 76.1722,50.83221 c 17.9722,-7.05388 29.0682,-28.33921 29.1759,-55.96812 0.1106,-28.19392 -9.4049,-47.39232 -28.0569,-56.61059 l -8.2308,-4.06797 -18.265,-0.41879 -18.2648,-0.41883 v 60.41401 60.41401 l 18.705,-0.44899 c 16.178,-0.38831 19.5469,-0.77941 24.9366,-2.89473 z m 68.0466,25.44356 c 0,-0.25134 2.4006,-7.20476 5.3347,-15.45204 2.9338,-8.24728 10.767,-30.36575 17.407,-49.15215 20.7328,-58.65911 31.5708,-89.25638 33.6081,-94.88089 l 1.9636,-5.42175 h 12.8445 12.8444 l 3.4464,9.75918 c 1.8955,5.36754 7.605,21.47019 12.6879,35.78363 5.083,14.31347 10.9368,30.90406 13.0085,36.86799 2.0714,5.96395 9.4227,26.83382 16.3359,46.37749 6.9132,19.54368 12.5694,35.7807 12.5694,36.08226 0,0.3016 -7.6416,0.41395 -16.9812,0.24971 l -16.9811,-0.29863 -7.688,-22.22924 c -4.2282,-12.22607 -8.0826,-22.83918 -8.565,-23.58467 -0.6567,-1.01452 -6.6915,-1.35544 -23.9941,-1.35544 -17.2138,0 -23.3835,0.34612 -24.161,1.35544 -0.9299,1.20722 -3.5152,8.26109 -13.9103,37.95235 l -2.9419,8.40373 h -13.4139 c -7.3776,0 -13.4139,-0.20564 -13.4139,-0.45697 z m 83.5198,-70.83923 c 0.065,-2.21921 -15.7738,-52.16502 -16.3284,-51.48398 -0.354,0.43478 -1.785,4.93813 -3.1801,10.00749 -1.3951,5.06935 -4.6573,16.25085 -7.2493,24.84782 -2.5922,8.59693 -4.7129,16.03829 -4.7129,16.53638 0,1.12387 31.4368,1.21607 31.4707,0.0923 z"
     id="path14660" /></g></svg>
