<?xml version="1.0" encoding="UTF-8" standalone="no"?>
<!-- Uploaded to: SVG Repo, www.svgrepo.com, Generator: SVG Repo Mixer Tools -->

<svg
   version="1.1"
   id="Layer_1"
   viewBox="0 0 743880.25 243533.81"
   xml:space="preserve"
   sodipodi:docname="small_log_with_text.svg"
   inkscape:version="1.2.2 (b0a84865, 2022-12-01)"
   width="743880.25"
   height="243533.81"
   xmlns:inkscape="http://www.inkscape.org/namespaces/inkscape"
   xmlns:sodipodi="http://sodipodi.sourceforge.net/DTD/sodipodi-0.dtd"
   xmlns="http://www.w3.org/2000/svg"
   xmlns:svg="http://www.w3.org/2000/svg"><defs
   id="defs7346" /><sodipodi:namedview
   id="namedview7344"
   pagecolor="#ffffff"
   bordercolor="#000000"
   borderopacity="0.25"
   inkscape:showpageshadow="2"
   inkscape:pageopacity="0.0"
   inkscape:pagecheckerboard="0"
   inkscape:deskcolor="#d1d1d1"
   showgrid="false"
   inkscape:zoom="0.46117805"
   inkscape:cx="754.58925"
   inkscape:cy="505.22786"
   inkscape:window-width="1432"
   inkscape:window-height="864"
   inkscape:window-x="4"
   inkscape:window-y="4"
   inkscape:window-maximized="0"
   inkscape:current-layer="Layer_1" />

<rect
   x="65.363998"
   y="-11809.325"
   style="fill:#3f2921;fill-opacity:1"
   width="26.118999"
   height="360.28601"
   id="rect7269" />
<path
   style="fill:#9c4944;fill-opacity:1"
   d="M 317.192,-11580.476 H 208.521 c -39.358,0 -71.264,31.906 -71.264,71.264 v 104.606 h 251.199 v -104.606 c 0,-39.358 -31.906,-71.264 -71.264,-71.264 z"
   id="path7271" />
<path
   style="fill:#9c4944;fill-opacity:1"
   d="m 252.43,-11580.476 h -43.91 c -39.358,0 -71.264,31.906 -71.264,71.264 v 104.606 h 43.909 v -104.606 c 0.001,-39.358 31.907,-71.264 71.265,-71.264 z"
   id="path7273" />
<g
   id="g7279"
   transform="translate(0,-11894.272)">
	<path
   style="fill:#d88a75;fill-opacity:1"
   d="m 141.384,216.395 c -14.288,-0.634 -25.661,-12.422 -25.661,-26.86 0,-14.841 12.03,-26.883 26.883,-26.883 1.337,0 2.65,0.092 3.941,0.288"
   id="path7275" />
	<path
   style="fill:#d88a75;fill-opacity:1"
   d="m 384.309,216.395 c 14.288,-0.634 25.673,-12.422 25.673,-26.86 0,-14.841 -12.041,-26.883 -26.894,-26.883 -1.337,0 -2.662,0.104 -3.941,0.288"
   id="path7277" />
</g>
<path
   style="fill:#f7cba4"
   d="m 223.962,-11561.678 -47.3,-34.366 c -24.995,-18.16 -38.518,-48.191 -35.546,-78.944 l 8.204,-84.898 c 5.651,-58.473 54.788,-103.091 113.533,-103.091 v 0 c 58.745,0 107.882,44.618 113.533,103.091 l 8.204,84.898 c 2.972,30.753 -10.549,60.783 -35.546,78.944 l -47.3,34.366 c -23.191,16.849 -54.592,16.849 -77.782,0 z"
   id="path7281" />
<path
   style="fill:#3f2921;fill-opacity:1"
   d="M 376.384,-11759.881 H 149.325 c 5.646,-58.479 54.78,-103.095 113.523,-103.095 29.372,0 56.347,11.154 76.685,29.614 20.327,18.471 34.028,44.236 36.851,73.481 z"
   id="path7283" />
<path
   style="fill:#e0b394"
   d="m 170.551,-11658.256 c -0.795,13.447 3.584,26.675 12.249,36.988 l 49.437,60.749 c 2.581,3.077 5.508,5.658 8.677,7.72 -5.946,-2.074 -11.661,-5.047 -16.95,-8.884 l -47.301,-34.361 c -24.993,-18.16 -38.509,-48.189 -35.537,-78.943 l 8.193,-84.901 c 5.6,-57.903 53.835,-102.22 111.83,-103.061 -35.721,0.864 -76.17,34.534 -78.278,70.393 z"
   id="path7285" />
<path
   style="fill:#3f2921;fill-opacity:1"
   d="m 263.85045,-11862.944 c -0.254,0.01 -0.495,0.01 -0.749,0.03 -35.537,1.302 -75.429,34.753 -77.526,70.359 l -2.512,32.67 -31.043,0.03 v -0.03 c 0.53,-5.427 1.429,-10.739 2.673,-15.902 0.012,-0.05 0.023,-0.09 0.035,-0.127 0.219,-0.864 0.438,-1.728 0.668,-2.593 0.23,-0.853 0.472,-1.717 0.714,-2.57 0.495,-1.705 1.037,-3.399 1.613,-5.059 1.429,-4.171 3.1,-8.227 5.001,-12.157 1.118,-2.351 2.328,-4.667 3.63,-6.925 1.694,-3.019 3.549,-5.946 5.531,-8.78 1.463,-2.132 3.019,-4.194 4.644,-6.211 12.376,-15.452 28.669,-27.551 47.301,-34.857 4.851,-1.924 9.875,-3.514 15.026,-4.736 0.853,-0.196 1.717,-0.403 2.581,-0.588 0.864,-0.184 1.728,-0.357 2.604,-0.53 0.876,-0.161 1.751,-0.323 2.627,-0.472 3.514,-0.599 7.075,-1.026 10.693,-1.268 0.899,-0.06 1.809,-0.115 2.719,-0.161 1.258,-0.07 2.514,-0.102 3.77,-0.125 z"
   id="path7287" />
<path
   style="fill:#dad4cb;fill-opacity:1"
   d="m 8.066,-11404.607 v -32.444 c 0,-6.625 5.371,-11.995 11.995,-11.995 h 116.723 c 6.625,0 11.995,5.371 11.995,11.995 v 32.444"
   id="path7289" />
<path
   style="fill:#d88a75;fill-opacity:1"
   d="m 285.538,-11800.879 h -45.371 c -7.412,0 -13.42,6.008 -13.42,13.42 v 27.574 h 72.21 v -27.574 c 0.001,-7.412 -6.007,-13.42 -13.419,-13.42 z"
   id="path7291" />
<rect
   x="298.48901"
   y="-11490.557"
   style="fill:#cf8787;fill-opacity:1"
   width="60.494999"
   height="31.111"
   id="rect7293" />





<path
   d="m 195.01467,-11575.122 c -3.4841,-5.179 -10.96288,-6.828 -16.69891,-3.685 -30.76047,16.851 -49.12476,46.273 -49.12476,78.704 v 46.057 c 0,6.058 5.44065,10.969 12.15565,10.969 6.71501,0 12.15566,-4.911 12.15566,-10.969 v -46.057 c 0,-24.701 13.99264,-47.11 37.42765,-59.95 5.73884,-3.143 7.5674,-9.889 4.08471,-15.069 z"
   id="path7305"
   style="stroke-width:1.33617" />
<path
   d="m 388.37781,-11433.683 c -5.13534,0 -9.29611,3.869 -9.29611,8.642 v 12.367 H 262.56837 v -108.775 c 0,-4.773 -4.16077,-8.642 -9.29611,-8.642 -5.13534,0 -9.29611,3.869 -9.29611,8.642 v 108.775 h -83.81129 c -5.13534,0 -9.29611,3.869 -9.29611,8.642 0,4.773 4.16077,8.642 9.29611,8.642 h 228.21403 c 5.13534,0 9.29611,-3.869 9.29611,-8.642 v -21.01 c -0.001,-4.771 -4.16184,-8.641 -9.29719,-8.641 z"
   id="path7307"
   style="stroke-width:1.03715" />
<path
   d="m 353.27396,-11585.142 c -5.18437,-3.489 -11.94096,-1.66 -15.09047,4.091 -3.14697,5.75 -1.49469,13.241 3.68968,16.73 21.18614,14.263 33.83503,39.143 33.83503,66.557 v 83.069 c 0,6.726 4.91619,12.178 10.9839,12.178 6.06771,0 10.9839,-5.452 10.9839,-12.178 v -83.069 c -0.003,-35.997 -16.60167,-68.664 -44.40204,-87.378 z"
   id="path7309"
   style="stroke-width:1.33831" />

<path
   d="m 137.361,-11457.113 h -36.66 v -351.64 c 0,-4.773 -3.868,-8.642 -8.642,-8.642 H 65.941 c -4.774,0 -8.642,3.869 -8.642,8.642 v 86.339 c 0,4.773 3.868,-3.556 8.642,-3.556 4.774,0 8.642,29.24 8.642,24.467 v -98.607 h 8.833 v 342.998 h -8.833 v -273.669 c 0,-4.773 -3.868,-8.642 -8.642,-8.642 -4.774,0 -8.642,3.869 -8.642,8.642 v 273.669 H 20.637 c -11.38,0 -20.637,9.257 -20.637,20.637 v 32.444 c 0,4.773 3.868,8.642 8.642,8.642 4.774,0 8.642,-3.869 8.642,-8.642 v -32.444 c 0,-1.849 1.505,-3.353 3.353,-3.353 H 65.94 92.058 137.36 c 1.848,0 3.353,1.504 3.353,3.353 v 32.444 c 0,4.773 3.868,8.642 8.642,8.642 4.774,0 8.642,-3.869 8.642,-8.642 v -32.444 c 10e-4,-11.38 -9.256,-20.638 -20.636,-20.638 z"
   id="path7313"
   sodipodi:nodetypes="scsssssssccccssscsssssssccssssscs" />
<path
   d="m 34.444,-11430.226 c -4.774,0 -8.642,3.869 -8.642,8.642 v 17.553 c 0,4.773 3.868,8.642 8.642,8.642 4.774,0 8.642,-3.869 8.642,-8.642 v -17.553 c 0,-4.772 -3.869,-8.642 -8.642,-8.642 z"
   id="path7315" />
<path
   d="m 123.555,-11430.226 c -4.774,0 -8.642,3.869 -8.642,8.642 v 17.553 c 0,4.773 3.868,8.642 8.642,8.642 4.774,0 8.642,-3.869 8.642,-8.642 v -17.553 c 0,-4.772 -3.869,-8.642 -8.642,-8.642 z"
   id="path7317" />
<path
   d="m 64.148,-11430.226 c -4.774,0 -8.642,3.869 -8.642,8.642 v 17.553 c 0,4.773 3.868,8.642 8.642,8.642 4.774,0 8.642,-3.869 8.642,-8.642 v -17.553 c 0,-4.772 -3.868,-8.642 -8.642,-8.642 z"
   id="path7319" />
<path
   d="m 93.85,-11430.226 c -4.774,0 -8.642,3.869 -8.642,8.642 v 17.553 c 0,4.773 3.868,8.642 8.642,8.642 4.774,0 8.642,-3.869 8.642,-8.642 v -17.553 c 10e-4,-4.772 -3.868,-8.642 -8.642,-8.642 z"
   id="path7321" />



<path
   d="m 290.417,-11489.979 v 31.111 c 0,4.773 3.868,8.642 8.642,8.642 h 60.492 c 4.774,0 8.642,-3.869 8.642,-8.642 v -31.111 c 0,-4.773 -3.868,-8.642 -8.642,-8.642 h -60.492 c -4.772,0 -8.642,3.869 -8.642,8.642 z m 17.284,8.642 h 43.207 v 13.826 h -43.207 z"
   id="path7329" />
<path
   d="m 132.751,-11670.181 c -1.364,31.891 13.432,62.833 39.408,81.705 l 47.3,34.366 c 13.151,9.555 28.557,14.332 43.97,14.331 15.407,-0 30.821,-4.779 43.969,-14.331 l 47.301,-34.366 c 25.978,-18.874 40.774,-49.817 39.407,-81.709 14.608,-4.452 25.092,-17.992 25.092,-33.976 0,-18.272 -13.872,-33.36 -31.64,-35.307 l -1.082,-11.194 h 30.108 c 4.774,0 8.642,-3.869 8.642,-8.642 0,-4.773 -3.868,-8.642 -8.642,-8.642 h -32.061 c -4.424,-27.393 -17.933,-52.458 -38.611,-71.233 -22.628,-20.546 -51.922,-31.862 -82.485,-31.862 -30.564,0 -59.859,11.315 -82.487,31.862 -22.629,20.546 -36.708,48.616 -39.648,79.039 l -1.998,20.672 c -17.768,1.942 -31.642,17.033 -31.642,35.308 0.004,15.988 10.491,29.53 25.099,33.979 z m 269.165,-33.979 c 0,6.87 -3.776,12.85 -9.4,15.962 l -3.218,-33.303 c 7.313,2.378 12.618,9.248 12.618,17.341 z m -25.351,30.58 c 2.665,27.581 -9.605,54.834 -32.023,71.122 l -47.302,34.366 c -20.224,14.693 -47.398,14.694 -67.622,0 l -47.3,-34.366 c -22.418,-16.288 -34.689,-43.539 -32.024,-71.122 l 7.45,-77.082 h 211.372 z m -140.599,-94.372 v -18.931 c 0,-2.634 2.143,-4.777 4.777,-4.777 h 45.371 c 2.634,0 4.777,2.143 4.777,4.777 v 18.931 z m -43.405,-58.432 c 19.44,-17.652 44.609,-27.374 70.868,-27.374 26.258,0 51.427,9.722 70.867,27.374 17.069,15.498 28.471,35.981 32.71,58.437 h -58.83 v -18.937 c 0,-12.165 -9.897,-22.062 -22.062,-22.062 h -45.371 c -12.166,0 -22.062,9.897 -22.062,22.062 v 18.937 h -58.83 c 4.24,-22.457 15.643,-42.938 32.71,-58.437 z m -55,104.878 -3.219,33.312 c -5.624,-3.11 -9.402,-9.093 -9.402,-15.966 0,-8.096 5.307,-14.97 12.621,-17.346 z"
   id="path7331" />

<circle
   cx="229.882"
   cy="-11507.61"
   r="8.6420002"
   id="circle7335" />
<circle
   cx="229.882"
   cy="-11473.156"
   r="8.6420002"
   id="circle7337" />
<circle
   cx="229.882"
   cy="-11438.681"
   r="8.6420002"
   id="circle7339" />

<path
   style="fill:#d88a75;fill-opacity:1;stroke:#000000;stroke-width:2.10002"
   d="m 156.57012,-11752.706 c -4.66664,32.978 -8.48311,66.509 -7.27213,99.816 3.70795,27.058 24.02778,47.197 45.67951,61.748 21.3015,14.199 41.03501,37.049 68.8944,35.44 29.82287,0.346 50.94073,-24.054 73.72824,-39.689 20.05008,-13.312 36.08162,-33.154 40.18121,-57.347 1.31773,-32.772 -3.13438,-65.773 -7.17941,-98.306 -8.79714,-6.036 -25.3115,-0.91 -37.06858,-2.609 -58.6145,0 -117.229,0 -175.84351,0 z"
   id="path9534" /><path
   style="fill:#000000;stroke-width:1.08435"
   d="m 787.63275,-11516.443 c -28.85146,-4.107 -45.75307,-17.901 -52.96193,-43.226 -1.99816,-7.019 -2.2296,-12.074 -2.85708,-62.398 -0.47408,-38.021 -1.07947,-55.917 -1.98049,-58.548 -0.71376,-2.083 -1.29773,-3.913 -1.29773,-4.066 0,-0.153 8.05134,-0.278 17.89182,-0.278 h 17.89184 v 55.645 c 0,35.382 0.42904,57.988 1.17823,62.079 3.48036,19.006 17.80616,29.624 38.30155,28.389 15.72069,-0.948 26.07393,-8.191 30.75436,-21.516 2.41495,-6.875 2.43933,-7.536 2.42846,-65.771 l -0.0101,-58.826 h 13.01223 13.01224 v 56.833 c 0,45.761 -0.31409,58.489 -1.61228,65.332 -4.27945,22.559 -18.89178,38.03 -41.34345,43.772 -8.21015,2.1 -25.88765,3.507 -32.40679,2.579 z m 589.97995,-0.483 c -12.213,-1.922 -29.067,-7.511 -35.0667,-11.629 -1.0375,-0.712 -0.3119,-3.357 3.0642,-11.168 2.4331,-5.629 4.87,-11.352 5.4156,-12.717 l 0.9916,-2.483 5.7034,4.258 c 11.8634,8.858 22.7749,12.529 35.3646,11.897 9.9501,-0.5 17.2756,-3.766 22.2609,-9.926 2.8262,-3.491 3.3779,-5.196 3.7365,-11.54 0.7616,-13.478 -3.8842,-18.479 -29.0271,-31.248 -21.8843,-11.114 -27.4403,-14.662 -33.1254,-21.155 -11.2949,-12.901 -13.399,-33.977 -5.028,-50.363 5.0153,-9.817 17.8861,-18.697 32.6667,-22.539 10.9397,-2.843 29.6704,-2.574 41.2054,0.591 10.2127,2.803 20.1521,6.88 23.0073,9.437 1.7392,1.557 1.5445,2.072 -2.9381,7.767 -2.6403,3.354 -6.2187,7.792 -7.9523,9.862 l -3.1516,3.764 -4.0603,-3.097 c -2.2334,-1.704 -7.3003,-4.241 -11.2599,-5.639 -15.8584,-5.598 -31.5163,-2.088 -36.7481,8.238 -2.9496,5.822 -3.0501,9.987 -0.3796,15.742 3.1939,6.884 8.1511,10.615 26.6751,20.078 28.4757,14.547 34.4627,19.329 40.4128,32.282 3.4422,7.494 4.5576,21.981 2.4292,31.553 -3.8056,17.116 -16.7261,30.002 -36.1961,36.098 -7.7974,2.442 -28.1869,3.481 -38.0001,1.937 z m -834.99953,-7.843 c -2.36131,-3.715 -11.82822,-18.221 -21.03758,-32.237 -19.86959,-30.238 -26.83298,-40.886 -43.25735,-66.145 -6.78644,-10.437 -12.67281,-19.318 -13.0808,-19.736 -0.40799,-0.418 -0.60456,27.274 -0.43679,61.537 l 0.30504,62.297 h -13.01901 -13.01903 l -0.39661,-79.429 c -0.21813,-43.686 -0.77368,-81.015 -1.23457,-82.953 l -0.838,-3.524 18.82817,0.03 18.82814,0.03 18.24909,27.894 c 30.63047,46.817 53.46642,81.536 53.94652,82.016 0.25082,0.251 0.45604,-24.267 0.45604,-54.484 v -54.941 l 12.74115,-0.306 12.74115,-0.305 v 83.529 83.53 l -12.74115,-0.02 -12.74115,-0.02 -4.29326,-6.755 z m 59.03614,-69.918 c -0.0153,-62.28 -0.29429,-76.782 -1.58789,-82.14 -0.86405,-3.578 -1.58837,-6.872 -1.60962,-7.319 -0.0213,-0.447 14.0583,-0.813 31.28781,-0.813 35.77768,0 44.63555,1.098 57.15214,7.084 16.56221,7.921 24.29413,21.399 24.29413,42.348 0,20.442 -8.34013,33.888 -26.54765,42.801 -10.57129,5.174 -22.99335,7.527 -39.73989,7.527 h -11.78586 v 33.073 33.073 h -15.72312 -15.72311 l -0.0168,-75.634 z m 59.78707,-14.956 c 6.17193,-2.177 11.07588,-7.031 14.02015,-13.875 1.95966,-4.555 2.28336,-6.95 1.88034,-13.912 -0.60878,-10.516 -4.34673,-17.363 -11.73822,-21.501 -4.30953,-2.413 -6.3382,-2.749 -18.66067,-3.091 l -13.8255,-0.384 v 27.218 27.218 h 11.79153 c 7.85405,0 13.37463,-0.559 16.53237,-1.673 z m 230.8099,14.414 c -0.0245,-70.165 -0.32749,-79.68 -2.79774,-87.833 -0.53092,-1.752 0.75785,-1.897 16.83256,-1.897 h 17.40748 l 0.2863,34.428 0.28635,34.428 34.42824,0.286 34.42813,0.287 v -34.715 -34.714 h 15.7231 15.7232 v 82.953 82.953 h -15.7232 -15.7231 v -36.868 -36.868 h -34.69926 -34.69931 v 36.868 36.868 H 907.99591 892.2728 Z m 161.59512,-0.557 c 0,-65.002 -0.2499,-77.724 -1.6147,-82.224 -0.8883,-2.927 -1.6203,-5.689 -1.6266,-6.136 -0.019,-1.308 70.7585,-0.956 79.4805,0.395 42.73,6.618 67.7888,43.9 62.6655,93.232 -2.2485,21.65 -8.6759,35.654 -22.8482,49.779 -6.9237,6.9 -11.2915,10.225 -17.3805,13.23 -15.1667,7.483 -16.8037,7.707 -59.9104,8.19 l -38.7656,0.435 z m 76.1722,50.832 c 17.9722,-7.054 29.0682,-28.339 29.1759,-55.968 0.1106,-28.194 -9.4049,-47.392 -28.0569,-56.61 l -8.2308,-4.068 -18.265,-0.419 -18.2648,-0.419 v 60.414 60.414 l 18.705,-0.449 c 16.178,-0.388 19.5469,-0.779 24.9366,-2.895 z m 68.0466,25.444 c 0,-0.252 2.4006,-7.205 5.3347,-15.452 2.9338,-8.248 10.767,-30.366 17.407,-49.152 20.7328,-58.66 31.5708,-89.257 33.6081,-94.881 l 1.9636,-5.422 h 12.8445 12.8444 l 3.4464,9.759 c 1.8955,5.368 7.605,21.47 12.6879,35.784 5.083,14.313 10.9368,30.904 13.0085,36.868 2.0714,5.964 9.4227,26.834 16.3359,46.377 6.9132,19.544 12.5694,35.781 12.5694,36.082 0,0.302 -7.6416,0.414 -16.9812,0.25 l -16.9811,-0.298 -7.688,-22.23 c -4.2282,-12.226 -8.0826,-22.839 -8.565,-23.584 -0.6567,-1.015 -6.6915,-1.356 -23.9941,-1.356 -17.2138,0 -23.3835,0.346 -24.161,1.356 -0.9299,1.207 -3.5152,8.261 -13.9103,37.952 l -2.9419,8.404 h -13.4139 c -7.3776,0 -13.4139,-0.206 -13.4139,-0.457 z m 83.5198,-70.839 c 0.065,-2.22 -15.7738,-52.165 -16.3284,-51.484 -0.354,0.434 -1.785,4.938 -3.1801,10.007 -1.3951,5.069 -4.6573,16.251 -7.2493,24.848 -2.5922,8.597 -4.7129,16.038 -4.7129,16.536 0,1.124 31.4368,1.216 31.4707,0.09 z"
   id="path14660" /></svg>
