<?xml version="1.0" encoding="UTF-8" standalone="no"?>
<!-- Uploaded to: SVG Repo, www.svgrepo.com, Generator: SVG Repo Mixer Tools -->

<svg
   version="1.1"
   id="Layer_1"
   viewBox="0 0 512 512"
   xml:space="preserve"
   sodipodi:docname="cleaner-svgrepo-com.svg"
   inkscape:version="1.2.2 (b0a84865, 2022-12-01)"
   xmlns:inkscape="http://www.inkscape.org/namespaces/inkscape"
   xmlns:sodipodi="http://sodipodi.sourceforge.net/DTD/sodipodi-0.dtd"
   xmlns="http://www.w3.org/2000/svg"
   xmlns:svg="http://www.w3.org/2000/svg"><defs
   id="defs7346"><clipPath
     clipPathUnits="userSpaceOnUse"
     id="clipPath7201"><rect
       style="fill:#000000;stroke:#000000;stroke-width:0.256496"
       id="rect7203"
       width="291.58661"
       height="206.73535"
       x="-328.71478"
       y="-159.6909" /></clipPath></defs><sodipodi:namedview
   id="namedview7344"
   pagecolor="#ffffff"
   bordercolor="#000000"
   borderopacity="0.25"
   inkscape:showpageshadow="2"
   inkscape:pageopacity="0.0"
   inkscape:pagecheckerboard="0"
   inkscape:deskcolor="#d1d1d1"
   showgrid="false"
   inkscape:zoom="0.28157011"
   inkscape:cx="216.64231"
   inkscape:cy="17.757567"
   inkscape:window-width="1432"
   inkscape:window-height="864"
   inkscape:window-x="4"
   inkscape:window-y="4"
   inkscape:window-maximized="0"
   inkscape:current-layer="Layer_1" />

<rect
   x="65.364"
   y="84.947"
   style="fill:#3f2921;fill-opacity:1"
   width="26.119"
   height="360.286"
   id="rect7269" />
<path
   style="fill:#9c4944;fill-opacity:1"
   d="M317.192,313.796H208.521c-39.358,0-71.264,31.906-71.264,71.264v104.606h251.199V385.06  C388.456,345.702,356.55,313.796,317.192,313.796z"
   id="path7271" />
<path
   style="fill:#9c4944;fill-opacity:1"
   d="M252.43,313.796H208.52c-39.358,0-71.264,31.906-71.264,71.264v104.606h43.909V385.06  C181.166,345.702,213.072,313.796,252.43,313.796z"
   id="path7273" />
<g
   id="g7279">
	<path
   style="fill:#d88a75;fill-opacity:1"
   d="M141.384,216.395c-14.288-0.634-25.661-12.422-25.661-26.86c0-14.841,12.03-26.883,26.883-26.883   c1.337,0,2.65,0.092,3.941,0.288"
   id="path7275" />
	<path
   style="fill:#d88a75;fill-opacity:1"
   d="M384.309,216.395c14.288-0.634,25.673-12.422,25.673-26.86c0-14.841-12.041-26.883-26.894-26.883   c-1.337,0-2.662,0.104-3.941,0.288"
   id="path7277" />
</g>
<path
   style="fill:#F7CBA4;"
   d="M223.962,332.594l-47.3-34.366c-24.995-18.16-38.518-48.191-35.546-78.944l8.204-84.898  c5.651-58.473,54.788-103.091,113.533-103.091l0,0c58.745,0,107.882,44.618,113.533,103.091l8.204,84.898  c2.972,30.753-10.549,60.783-35.546,78.944l-47.3,34.366C278.553,349.443,247.152,349.443,223.962,332.594z"
   id="path7281" />
<path
   style="fill:#3f2921;fill-opacity:1"
   d="M376.384,134.391H149.325c5.646-58.479,54.78-103.095,113.523-103.095  c29.372,0,56.347,11.154,76.685,29.614C359.86,79.381,373.561,105.146,376.384,134.391z"
   id="path7283" />
<path
   style="fill:#E0B394;"
   d="M170.551,236.016c-0.795,13.447,3.584,26.675,12.249,36.988l49.437,60.749  c2.581,3.077,5.508,5.658,8.677,7.72c-5.946-2.074-11.661-5.047-16.95-8.884l-47.301-34.361  c-24.993-18.16-38.509-48.189-35.537-78.943l8.193-84.901c5.6-57.903,53.835-102.22,111.83-103.061  c-35.721,0.864-76.17,34.534-78.278,70.393L170.551,236.016z"
   id="path7285" />
<path
   style="fill:#3f2921;fill-opacity:1"
   d="m 263.85045,31.328 c -0.254,0.012 -0.495,0.012 -0.749,0.035 -35.537,1.302 -75.429,34.753 -77.526,70.359 l -2.512,32.67 -31.043,0.032 v -0.035 c 0.53,-5.427 1.429,-10.739 2.673,-15.902 0.012,-0.046 0.023,-0.092 0.035,-0.127 0.219,-0.864 0.438,-1.728 0.668,-2.593 0.23,-0.853 0.472,-1.717 0.714,-2.57 0.495,-1.705 1.037,-3.399 1.613,-5.059 1.429,-4.171 3.1,-8.227 5.001,-12.157 1.118,-2.351 2.328,-4.667 3.63,-6.925 1.694,-3.019 3.549,-5.946 5.531,-8.78 1.463,-2.132 3.019,-4.194 4.644,-6.211 12.376,-15.452 28.669,-27.551 47.301,-34.857 4.851,-1.924 9.875,-3.514 15.026,-4.736 0.853,-0.196 1.717,-0.403 2.581,-0.588 0.864,-0.184 1.728,-0.357 2.604,-0.53 0.876,-0.161 1.751,-0.323 2.627,-0.472 3.514,-0.599 7.075,-1.026 10.693,-1.268 0.899,-0.058 1.809,-0.115 2.719,-0.161 1.258,-0.067 2.514,-0.102 3.77,-0.125 z"
   id="path7287" />
<path
   style="fill:#dad4cb;fill-opacity:1"
   d="M8.066,489.665v-32.444c0-6.625,5.371-11.995,11.995-11.995h116.723  c6.625,0,11.995,5.371,11.995,11.995v32.444"
   id="path7289" />
<path
   style="fill:#d88a75;fill-opacity:1"
   d="M285.538,93.393h-45.371c-7.412,0-13.42,6.008-13.42,13.42v27.574h72.21v-27.574  C298.958,99.401,292.95,93.393,285.538,93.393z"
   id="path7291" />
<rect
   x="298.489"
   y="403.716"
   style="fill:#cf8787;fill-opacity:1"
   width="60.495"
   height="31.111"
   id="rect7293" />





<path
   d="m 195.01467,319.15029 c -3.4841,-5.1787 -10.96288,-6.8275 -16.69891,-3.68475 -30.76047,16.85107 -49.12476,46.27316 -49.12476,78.70348 v 46.05738 c 0,6.05832 5.44065,10.96919 12.15565,10.96919 6.71501,0 12.15566,-4.91087 12.15566,-10.96919 v -46.05738 c 0,-24.70035 13.99264,-47.10963 37.42765,-59.94975 5.73884,-3.14276 7.5674,-9.88902 4.08471,-15.06898 z"
   id="path7305"
   style="stroke-width:1.33617" />
<path
   d="m 388.37781,460.589 c -5.13534,0 -9.29611,3.869 -9.29611,8.642 v 12.367 H 262.56837 V 372.823 c 0,-4.773 -4.16077,-8.642 -9.29611,-8.642 -5.13534,0 -9.29611,3.869 -9.29611,8.642 v 108.775 h -83.81129 c -5.13534,0 -9.29611,3.869 -9.29611,8.642 0,4.773 4.16077,8.642 9.29611,8.642 h 228.21403 c 5.13534,0 9.29611,-3.869 9.29611,-8.642 v -21.01 c -0.001,-4.771 -4.16184,-8.641 -9.29719,-8.641 z"
   id="path7307"
   style="stroke-width:1.03715" />
<path
   d="m 353.27396,309.13094 c -5.18437,-3.48915 -11.94096,-1.66003 -15.09047,4.09086 -3.14697,5.74946 -1.49469,13.2407 3.68968,16.72984 21.18614,14.26234 33.83503,39.14288 33.83503,66.55716 v 83.06858 c 0,6.72603 4.91619,12.17817 10.9839,12.17817 6.06771,0 10.9839,-5.45214 10.9839,-12.17817 V 396.5088 c -0.003,-35.9976 -16.60167,-68.66389 -44.40204,-87.37786 z"
   id="path7309"
   style="stroke-width:1.33831" />

<path
   d="m 137.361,437.159 h -36.66 V 85.519 c 0,-4.773 -3.868,-8.642 -8.642,-8.642 H 65.941 c -4.774,0 -8.642,3.869 -8.642,8.642 v 86.33908 c 0,4.773 3.868,-3.55607 8.642,-3.55607 4.774,0 8.642,29.24005 8.642,24.46706 l 0,-98.60707 h 8.833 V 437.16 H 74.583 V 163.491 c 0,-4.773 -3.868,-8.642 -8.642,-8.642 -4.774,0 -8.642,3.869 -8.642,8.642 V 437.16 H 20.637 C 9.257,437.16 0,446.417 0,457.797 v 32.444 c 0,4.773 3.868,8.642 8.642,8.642 4.774,0 8.642,-3.869 8.642,-8.642 v -32.444 c 0,-1.849 1.505,-3.353 3.353,-3.353 H 65.94 92.058 137.36 c 1.848,0 3.353,1.504 3.353,3.353 v 32.444 c 0,4.773 3.868,8.642 8.642,8.642 4.774,0 8.642,-3.869 8.642,-8.642 v -32.444 c 10e-4,-11.38 -9.256,-20.638 -20.636,-20.638 z"
   id="path7313"
   sodipodi:nodetypes="scsssssssccccssscsssssssccssssscs" />
<path
   d="M34.444,464.046c-4.774,0-8.642,3.869-8.642,8.642v17.553c0,4.773,3.868,8.642,8.642,8.642s8.642-3.869,8.642-8.642v-17.553  C43.086,467.916,39.217,464.046,34.444,464.046z"
   id="path7315" />
<path
   d="M123.555,464.046c-4.774,0-8.642,3.869-8.642,8.642v17.553c0,4.773,3.868,8.642,8.642,8.642  c4.774,0,8.642-3.869,8.642-8.642v-17.553C132.197,467.916,128.328,464.046,123.555,464.046z"
   id="path7317" />
<path
   d="M64.148,464.046c-4.774,0-8.642,3.869-8.642,8.642v17.553c0,4.773,3.868,8.642,8.642,8.642c4.774,0,8.642-3.869,8.642-8.642  v-17.553C72.79,467.916,68.922,464.046,64.148,464.046z"
   id="path7319" />
<path
   d="M93.85,464.046c-4.774,0-8.642,3.869-8.642,8.642v17.553c0,4.773,3.868,8.642,8.642,8.642c4.774,0,8.642-3.869,8.642-8.642  v-17.553C102.493,467.916,98.624,464.046,93.85,464.046z"
   id="path7321" />



<path
   d="M290.417,404.293v31.111c0,4.773,3.868,8.642,8.642,8.642h60.492c4.774,0,8.642-3.869,8.642-8.642v-31.111  c0-4.773-3.868-8.642-8.642-8.642h-60.492C294.287,395.651,290.417,399.52,290.417,404.293z M307.701,412.935h43.207v13.826h-43.207  V412.935z"
   id="path7329" />
<path
   d="M132.751,224.091c-1.364,31.891,13.432,62.833,39.408,81.705l47.3,34.366c13.151,9.555,28.557,14.332,43.97,14.331  c15.407-0.001,30.821-4.779,43.969-14.331l47.301-34.366c25.978-18.874,40.774-49.817,39.407-81.709  c14.608-4.452,25.092-17.992,25.092-33.976c0-18.272-13.872-33.36-31.64-35.307l-1.082-11.194h30.108  c4.774,0,8.642-3.869,8.642-8.642s-3.868-8.642-8.642-8.642h-32.061c-4.424-27.393-17.933-52.458-38.611-71.233  c-22.628-20.546-51.922-31.862-82.485-31.862c-30.564,0-59.859,11.315-82.487,31.862c-22.629,20.546-36.708,48.616-39.648,79.039  l-1.998,20.672c-17.768,1.942-31.642,17.033-31.642,35.308C107.656,206.1,118.143,219.642,132.751,224.091z M401.916,190.112  c0,6.87-3.776,12.85-9.4,15.962l-3.218-33.303C396.611,175.149,401.916,182.019,401.916,190.112z M376.565,220.692  c2.665,27.581-9.605,54.834-32.023,71.122L297.24,326.18c-20.224,14.693-47.398,14.694-67.622,0l-47.3-34.366  c-22.418-16.288-34.689-43.539-32.024-71.122l7.45-77.082h211.372L376.565,220.692z M235.966,126.32v-18.931  c0-2.634,2.143-4.777,4.777-4.777h45.371c2.634,0,4.777,2.143,4.777,4.777v18.931H235.966z M192.561,67.888  c19.44-17.652,44.609-27.374,70.868-27.374c26.258,0,51.427,9.722,70.867,27.374c17.069,15.498,28.471,35.981,32.71,58.437h-58.83  v-18.937c0-12.165-9.897-22.062-22.062-22.062h-45.371c-12.166,0-22.062,9.897-22.062,22.062v18.937h-58.83  C164.091,103.868,175.494,83.387,192.561,67.888z M137.561,172.766l-3.219,33.312c-5.624-3.11-9.402-9.093-9.402-15.966  C124.94,182.016,130.247,175.142,137.561,172.766z"
   id="path7331" />

<circle
   cx="229.882"
   cy="386.662"
   r="8.642"
   id="circle7335" />
<circle
   cx="229.882"
   cy="421.116"
   r="8.642"
   id="circle7337" />
<circle
   cx="229.882"
   cy="455.592"
   r="8.642"
   id="circle7339" />

<path
   style="fill:#d88a75;stroke:#000000;stroke-width:2.10002;fill-opacity:1"
   d="m 156.57012,141.56649 c -4.66664,32.97821 -8.48311,66.50852 -7.27213,99.81637 3.70795,27.05765 24.02778,47.19651 45.67951,61.7477 21.3015,14.19893 41.03501,37.04865 68.8944,35.43956 29.82287,0.34607 50.94073,-24.05342 73.72824,-39.68912 20.05008,-13.31134 36.08162,-33.15323 40.18121,-57.34638 1.31773,-32.77184 -3.13438,-65.77289 -7.17941,-98.30605 -8.79714,-6.03569 -25.3115,-0.91 -37.06858,-2.60955 -58.6145,0 -117.229,0 -175.84351,0 z"
   id="path9534" /></svg>
